<svg xmlns="http://www.w3.org/2000/svg" fill="none" viewBox="0 0 128 128"><path d="M25.346 5.623v10.39h9.176v11.61l-34.433.101v10.143l4.534.075 4.527.076v51.95H0l.04 5.136.052 5.123 17.218.052 17.228.05-.065 5.743-.063 5.731-4.53.072-4.53.076v10.38h29.967v-10.337l-4.53-.076-4.544-.075v-11.357l21.335-.052 21.334-.05-.066 5.744-.065 5.744-4.465.125-4.478.125v10.153l14.92.052 14.93.05v-10.39h-8.943V100.45l5.497-.128c4.597-.1 5.807-.198 7.385-.644 6.573-1.798 11.123-6.017 13.2-12.247 1.332-3.995 1.534-10.155.467-14.355-.641-2.525-2.36-5.891-3.824-7.522-.673-.753-1.223-1.472-1.223-1.592 0-.124.286-.492.632-.812 1.047-.978 2.899-3.934 3.563-5.688 1.386-3.653 1.853-7.844 1.378-12.29-.773-7.236-4.52-12.7-10.708-15.59-3.446-1.608-4.233-1.75-10.623-1.871l-5.744-.099V16.06h8.943V5.669l-16.827.05-16.844.049-1.561 4.84c-5.155 15.963-6.898 21.24-6.97 21.025-.335-.978-6.789-21.033-7.47-23.218l-.868-2.759H42.242ZM88.896 16v11.619h-4.35c-3.069 0-4.301-.053-4.346-.26.032-.37 2.213-7.323 3.097-9.873l.45-1.329 2.581-.072zm-37.478.013 3.653 11.612h-8.828c-.023-3.65-.005-7.762 0-11.468l2.594-.075zM20.996 38.03h13.539l-.062 10.34-.066 10.324-6.543.076c-3.597.025-6.608-.013-6.697-.099l-.013-.013v-.013c-.084-.369-.158-4.927-.158-10.38zm55.613 0h12.3l-.063 10.33-.065 10.334-9.357.076c-5.152.025-9.37-.011-9.37-.099v-.013c0-.1 1.364-4.407 3.034-9.604 1.668-5.198 3.143-9.8 3.278-10.231zm24.136 0 3.613.004c3.95 0 5.58.248 7.28 1.094 1.66.835 2.473 1.623 3.29 3.176.945 1.792 1.28 3.4 1.28 6.195 0 5.935-2.462 9.246-7.487 10.054-1.734.28-7.567.35-7.821.098-.088-.099-.155-4.762-.155-10.39zm-54.502.128h12.313l3.186 9.91c1.752 5.449 3.232 10.064 3.278 10.264.07.317-1.109.37-9.292.425-7.292.05-9.354.007-9.485-.224-.064-.256-.1-4.874-.066-10.34zm-18.48 31.064h6.772l-.062 10.327-.066 10.337-6.71.075-6.701.076V69.226Zm72.982.003h3.962c3.256 0 4.235.073 5.497.464 2.66.82 4.383 2.49 5.422 5.214.378.992.455 1.838.45 4.711-.007 4.424-.418 5.69-2.515 7.756-2.128 2.096-3.246 2.438-8.532 2.581l-4.284.125zm-11.85.01V90.03H67.628c-16.802 0-21.291-.076-21.384-.312v-.013c-.064-.175-.086-4.82-.053-10.337l.053-10.028 21.331-.05z" style="fill:#fff"/></svg>