<svg xmlns="http://www.w3.org/2000/svg" id="svg6" fill="none" version="1.1" viewBox="0 0 128 128"><style id="style4">@media (prefers-color-scheme:dark){path{fill:#fff}}</style><circle id="path941" cx="64" cy="64" r="49.094" style="fill:#fff;stroke-width:3.26929;stroke-linecap:round;stroke-linejoin:round;stop-color:#000"/><path id="path8503-8" d="M63.744 0a64 64 0 0 0-64 64 64 64 0 0 0 64 64 64 64 0 0 0 64-64 64 64 0 0 0-64-64ZM40.702 29.405l10.036.018h10.044l.514 1.64c.405 1.298 4.24 13.212 4.439 13.793.043.128 1.078-3.007 4.14-12.49l.928-2.875 10.005-.03 9.997-.03v6.173H85.492v6.862l3.412.06c3.796.072 4.263.155 6.31 1.11 3.676 1.717 5.904 4.964 6.363 9.263.282 2.641.003 5.13-.82 7.3-.395 1.042-1.494 2.799-2.116 3.38-.205.19-.376.408-.376.482 0 .071.328.497.728.944.87.969 1.889 2.97 2.27 4.47.634 2.495.515 6.153-.276 8.526-1.234 3.701-3.938 6.208-7.843 7.276-.937.265-1.655.325-4.386.384l-3.266.075v6.854H90.805v6.172l-8.87-.03-8.863-.03V92.67l2.66-.075 2.653-.074.039-3.412.038-3.412-12.673.03-12.673.03v6.746l2.699.045 2.69.045V98.734H40.703v-6.165l2.691-.045 2.691-.044.039-3.404.038-3.412-10.235-.03-10.227-.03-.032-3.043-.023-3.052H31.08v-30.86l-2.69-.045-2.692-.045v-6.026l20.455-.06v-6.896H40.702v-3.082zm37.752 6.164-1.526.05-1.533.043-.268.79c-.525 1.515-1.821 5.645-1.84 5.865.027.123.76.153 2.583.153h2.584v-3.45zm-22.264.008-1.534.04-1.54.045c-.003 2.201-.014 4.644 0 6.812h5.243zm-18.072 13.08v6.08c0 3.239.042 5.946.092 6.165v.008l.008.008c.053.051 1.842.074 3.979.059l3.887-.045.039-6.133.038-6.142h-4.025zm33.037 0-.146.469c-.08.256-.956 2.992-1.947 6.08-.992 3.087-1.802 5.645-1.802 5.704v.008c0 .052 2.506.074 5.566.059l5.559-.045.038-6.14.038-6.135h-3.649zm14.337 0v6.078c0 3.343.04 6.113.092 6.172.151.15 3.616.107 4.646-.059 2.985-.48 4.447-2.447 4.447-5.973 0-1.66-.199-2.616-.76-3.68-.486-.923-.968-1.39-1.954-1.886-1.01-.503-1.978-.651-4.324-.651zm-32.377.075-.038 5.962c-.02 3.247 0 5.99.038 6.142.078.137 1.303.163 5.635.133 4.861-.032 5.562-.065 5.52-.253-.027-.119-.906-2.859-1.947-6.096l-1.894-5.888h-3.657ZM38.118 67.187V79.55l3.98-.045 3.986-.044.039-6.141.038-6.134h-4.025zm47.374 0v12.387l2.546-.074c3.14-.085 3.803-.288 5.067-1.533 1.246-1.228 1.491-1.98 1.495-4.608.003-1.707-.043-2.21-.268-2.799-.617-1.618-1.64-2.61-3.22-3.097-.75-.232-1.332-.276-3.266-.276zm-7.038.007-12.666.032-12.673.03-.031 5.957c-.02 3.277-.007 6.037.031 6.141v.008c.055.14 2.723.184 12.704.184h12.635v-6.172z" style="stroke-width:1.20945;fill:#000"/></svg>