<svg xmlns="http://www.w3.org/2000/svg" width="400" height="400" viewBox="0 0 105.833 105.833"><g transform="matrix(12.26695 0 0 12.26748 -833.901 -1768.736)"><circle cx="72.288" cy="148.5" r="4.184" style="vector-effect:none;fill:#000;fill-opacity:1;stroke:#000;stroke-width:.259906;stroke-linecap:butt;stroke-linejoin:miter;stroke-miterlimit:4;stroke-dasharray:none;stroke-dashoffset:0;stroke-opacity:1;paint-order:markers stroke fill"/><path d="M70.74 146.163v.416h.368v.465l-1.38.004v.406l.182.003.182.003v2.08h-.367l.002.205.002.206.69.002.69.002-.003.23-.003.229-.181.003-.182.003v.415h1.2v-.414l-.181-.003-.182-.003v-.454l.854-.002.854-.002-.002.23-.003.23-.179.005-.179.005v.406l.597.002.598.002v-.416h-.358v-.462l.22-.005c.184-.004.233-.008.296-.026a.734.734 0 0 0 .529-.49c.053-.16.06-.406.018-.575a.844.844 0 0 0-.153-.3.322.322 0 0 1-.049-.064c0-.005.012-.02.025-.033a.823.823 0 0 0 .143-.228c.056-.146.074-.314.055-.492a.741.741 0 0 0-.429-.624c-.138-.064-.169-.07-.425-.075l-.23-.004v-.462h.359v-.416l-.675.002-.674.002-.062.193c-.207.64-.277.85-.28.842l-.299-.93-.034-.11h-.677zm2.545.415v.465h-.174c-.123 0-.173-.002-.175-.01.002-.015.09-.293.124-.395l.019-.054.103-.003zm-1.5 0 .145.466h-.353v-.46l.104-.003zm-1.219.882h.542l-.002.414-.003.414-.262.003c-.144 0-.265 0-.268-.004v-.001a7.74 7.74 0 0 1-.007-.416zm2.227 0h.492l-.002.414-.003.414-.375.003c-.206 0-.375 0-.375-.004a235.146 235.146 0 0 0 .253-.794zm.966 0h.145c.158 0 .223.01.291.044a.262.262 0 0 1 .132.127.478.478 0 0 1 .051.248c0 .238-.098.37-.3.403-.069.011-.302.014-.313.004a7.14 7.14 0 0 1-.006-.416zm-2.182.005h.493l.127.397.132.411c.003.013-.045.015-.372.017-.292.002-.375 0-.38-.009-.003-.01-.004-.195-.003-.414zm-1.01 1.244h.541l-.002.414-.003.414-.269.003-.268.003v-.418zm3.192 0h.159c.13 0 .17.003.22.019.106.033.175.1.217.209.015.04.018.073.018.188 0 .177-.017.228-.1.31-.086.085-.13.098-.342.104l-.172.005v-.417zm-.474 0v.833h-.852c-.673 0-.852-.003-.856-.012a9.74 9.74 0 0 1-.002-.415l.002-.401.854-.002z" style="fill:#fff;stroke-width:.00967629"/></g></svg>