<svg xmlns="http://www.w3.org/2000/svg" width="500" height="540" viewBox="215.358 592.654 375 405"><g style="stroke:none"><g style="stroke:none"><path fill="#ffb405" d="M527.94 723.38c-8.494 14.672-23.153 26.513-25.535 44.158-2.462 12.858-13.323 22.658-13.912 36.108-.942 14.26 4.92 27.938 4.418 42.203-.125 7.114 1.54 14.127 5.103 20.293 3.834 9.233 5.725 19.152 7.625 28.9-.07 5.626.217 21.74 8.921 14.138 6.263-6.644 10.072-15.308 17.126-21.307 10.545-9.817 12.371-25.032 14.36-38.535 2.261-18.275 4.98-36.81 2.169-55.199-1.77-12.424-4.895-24.837-11.273-35.752-2.167-5.112-4.63-10.578-9.536-13.637" style="stroke:none" transform="matrix(1.07095 0 0 1 -20.853 3.075)"/><path d="M541.749 771.019c-13.755 9.397-19.95 26.005-25.952 40.837-8.27 26.149 4.179 52.519 15.815 75.5 5.543 12.143-9.16 20.596-19.551 20.038-12.945-3.217-15.377-18.877-16.592-30.217-.854-14.923-2.345-29.78-5.837-44.333-2.903-23.023-1.15-47.847 9.9-68.603 8.007-13.25 20.773-23.564 35.433-28.551l-.006.72-.003.428" opacity=".098" style="stroke:none" transform="matrix(1.07095 0 0 1 -20.853 3.075)"/><path d="M536.607 749.31c-7.985 4.154-11.643 13.122-17.945 19.194-11.879 16.216-18.546 36.342-19.192 56.385.715 15.75 6.757 30.695 12.584 45.17 6.056 11.51 10.431 24.616 7.77 37.742-7.928 9.665-15.667-5.61-18.058-12.313-7.592-10.834-14.521-23.04-13.892-36.744-.392-16.26-4.613-32.624-1.148-48.856 2.964-14.737 6.073-29.852 14.86-42.413 6.96-11.095 14.912-21.509 23.979-30.95 1.088-1.387 2.086-2.85 2.916-4.407" opacity=".098" style="stroke:none" transform="matrix(1.07095 0 0 1 -20.853 3.075)"/></g><g style="stroke:none"><path fill="#ffb405" d="M262.405 716.113c-13.406 9.49-16.36 27.103-21.083 41.759-4.698 15.502-7.111 31.699-3.42 47.638 1.18 13.81-1.453 29.96 10.848 39.756 8.973 11.573 15.08 25.181 25.025 36.196 3.777 12.028 21.309 21.72 27.38 5.963 2.865-14.272-.017-29.544 1.847-43.522 11.032-7.592 14.75-18.906 7.202-30.844-7.526-15.657-3.642-34.35-12.498-49.403-3.881-5.905-11.487-8.24-14.038-15.273" style="stroke:none" transform="matrix(1.07095 0 0 1 -20.853 3.075)"/><path d="M246.476 751.131c17.85 7.973 21.685 29.56 25.126 46.831 2.614 17.804 2.914 36.41-1.446 53.897-3.687 10.75-13.1 23.9-3.847 34.447 6.654 9.416 21.006 16.873 29.878 5.694 9.265-14.698 9.564-33.44 13.52-50.095 2.895-29.037 1.912-61.451-16.882-85.482-11.538-12.376-15.258-31.084-30.2-40.39-7.531-2.399-8.044 10.867-15.514 8.804" opacity=".098" style="stroke:none" transform="matrix(1.07095 0 0 1 -20.853 3.075)"/><path d="M252.317 732.523c3.676 8.883 12.139 14.629 16.08 23.369 15.132 22.082 18.407 49.63 19.609 75.714.203 22.084-5.58 43.622-10.65 64.92-2.015 8.121 9.388 15.277 12.762 5.775 3.626-7.626 7.127-15.744 14.72-20.216 6.764-7.642 5.934-18.495 8.79-27.768 3.42-14.377 5.964-29.822.856-44.14-3.7-12.875-10.004-24.95-12.232-38.243-2.229-8.42-5.278-17.112-12.136-22.892-10.28-10.28-18.459-22.515-29.707-31.85-3.292-2.101-7.154-.305-10.632.094" opacity=".098" style="stroke:none" transform="matrix(1.07095 0 0 1 -20.853 3.075)"/></g><path d="M692.513 690.44c-20.224 3.707-34.844 31.177-42.777 47.368-18.59 46.154-17.144 103.078 14.072 143.536 7.927 12.235 18.319 22.73 28.227 33.12 9.221 7.784 26.008 22.67 21.129 2.6-2.81-19.52-23.414-28.164-32.223-44.374-16.454-21.848-25.78-49.153-23.314-76.637.947-24.583 7.58-49.37 21.58-69.815-2.732-11.204 33.17-29.072 13.306-35.799m250.752 27.27c-5.056 5.597-.627 14.767-8.105 17.067 2.287 16.85 12.592 17.807 21.232 45.813s8.885 62.233-6.285 89.508c-7.01 14.514-17.825 29.106-31.705 37.865-4.946 6.17 12.77 11.054 2.074 15.633 6.76 15.255 26.186-7.195 33.262-15.873 24.63-30.836 35.127-71.994 28.038-110.832-4.657-29.38-15.99-58.729-38.51-79.18m40.874 100.835-.128.565z" style="color:#000;fill:#000;stroke:none;stroke-width:.999997;stroke-linecap:round;stroke-linejoin:round;-inkscape-stroke:none" transform="matrix(1.07095 0 0 1 -465.75 .658)"/></g><path fill="#fff" d="M403.706 704.289c-12.657-4.719-25.8 1.593-37.87 5.233-14.004 4.35-29.02 5.985-42.461 11.62-8.32 6.925-16.415 14.98-18.504 25.616-7.962 21.922-2.931 46.143 7.91 66.354 7.35 8.615 5.341 19.972-3.945 26.35-5.853 9.287-14.033 24.063-3.626 33.032 10.508 11.36-8.652 23.17-3.633 36.252 6.536 12.477 2.807 26.389 6.032 39.404.51 14.662 20.436 6.231 20.986 19.539 3.99 12.6 21.912 9.446 32.854 10.538 12.15 2.806 21.32-6.624 32.555-4.222 10.522-.243 19.477 5.502 29.911 6.335 10.06-3.78 22.005-15.524 34.32-8.341 14.759 6.123 23.024-10.94 35.922-12.548 11.06-1.413 19.048-10.622 24.283-19.542 3.902-9.096 4.332-18.983.168-28.209-.036-9.842 7.561-20.832.474-30.466-12.09-6.572-6.238-19.046-7.017-29.165.757-13.183-23.345-13.17-13.987-26.717 5.726-9.44 8.023-19.935 9.847-30.533 2.514-12.283-.462-24.504-3.086-36.429-1.6-11.2-4.836-23.63-13.71-31.602-10.402-8.247-25.397-4.947-36.493-11.93-11.603-6.329-22.735-14.097-37.03-13.695-11.898 1.073-25.452-2.847-36.027 3.445" style="stroke:none;stroke-width:1.03486"/><path d="M410.49 788.794c-7.228-.28-9.906 7.687-16.782 1.866-10.9-1.971-22.103 1.578-31.58 6.476-5.493 6.15-15.078-.124-22.181 3.805-9.615 3.792-10.254 14.997-11.399 23.364.435 6.82 1.553 11.164-5.044 15.314-6.675 6.644-7.792 17.204-1.981 24.654 2.439 6.181 15.785 11.024 4.966 16.222-4.1 4.314-.812 12.36-9.442 10.242-8.8 2.983-7.293 15.269-1.152 20.095 5.265 4.334 12.199 3.738 7.599 11.171-1.146 11.263-.986 23.554 5.299 33.54 5.251 7.892 16.945 8.02 24.751 3.56 5.366 6.41 14.443 1.417 19.494-2.746 5.338-3.676 8.308-11.879 14.249-4.994 9.419 1.136 18.288 4.073 27.786 4.744 8.643-.191 16.972-3.679 23.715-8.584 7.472 2.67 13.474 10.12 22.354 8.266 8.524-2.82 13.783-10.71 23.815-8.523 11.365-1.937 14.38-13.268 14.3-22.502.896-10.551 3.22-21.135 1.378-31.724-.3-7.804-5.943-14.526-10.392-18.858 1.14-10.3 5.965-21.049 1.39-31.12-2.046-6.88-15.766-8.273-10.954-16.523 2.393-10.808-1.68-24.94-14.168-28.466-5.854-4.798-13.85 1.246-18.172-1.165-5.5-3.924-14.646-3.333-19.15 1.752-4.87-5.152-11.01-9.55-18.7-9.866m13.352 5.133c.173.13.616.345 0 0m-.684-.282c.27.093.892.38 0 0m-35.838 6.872c-2.725 6.302-9.96 6.282-9.842 1.662 3.643-1.422 5.348-1.467 9.842-1.662m29.231 3.784c5.727-.081 4.477 9.125 1.119 1.387l-1.005-1.251zm23.38.316c7.731 1.388-4.804 6.666-3.236 1.414.575-1.086 1.913-1.87 3.235-1.414m1.435.043.015.011zm16.994 2.06c3.425-.605 13.669 6.288 7.25 4.532-6.392 2.063-4.606-.22-7.25-4.533m4.12 1.072c.068.026.265.101 0 0m.216.071c1.384.279.108.066 0 0m-66.637.724c2.96 1.345-3.887 6.106-2.459 2.256l1.045-1.013zm-43.483 1.995c-2.856 3.94-10.202 9.973-13.285 15.923.09-5.194.964-11.259 6.772-13.605a11.33 11.33 0 0 1 6.513-2.318m55.696 1.295c3.934 4.33 3.69 10.166-3.308 6.877.81-2.401 1.97-4.694 3.31-6.877m-37.908 1.346c.201.12.049.04 0 0m.187.117c.11-.08.237.249 0 0m-3.321.457c11.56 2.549-7.675 2.698-8.715 8.858-4.175 5.39 3.304-8.487 6.693-8.095l1.188-.471zm83.226 1.149c2.14 6.14-4.087 6.177 0 0m14.104 3.205c.768 3.34-5.85 7.879-1.425 1.906l1.133-1.678c-.067.05.118-.092.292-.228m5.267 5.829c.072 2.737-2.495 2.412 0 0m-94.201 1.693c1.284 5.295-7.125 1.672-6.757 7.156-9.833 3.248 2.546-10.373 6.757-7.156m99.2 17.128c8.192 2.728 7.012 10.474 1.003 4.204-.187-1.428-.547-2.832-1.003-4.204M330.7 845.872c5.503-1.427-1.767 13.686-2.174 11.21-2.23-3.906-.688-8.002 2.174-11.21m133.5 4.715c.257 5.526-1.163-.659 0 0m-122.597 8.32c2.853 2.668 7.414 4.723.256 5.009-.212-1.662-.327-3.336-.257-5.01m134.308.57c6.382.87 4.567 5.362-1.041 2.444-3.864 1.257-.507-3.042 1.04-2.444m-95.915 4.678c-2.781 2.019-9.13 11.249-7.167 2.793-1.492-4.275 5.666-.635 7.166-2.793m11.967 6.764c6.666 6.269-11.13 13.106-10.67 10.48 3.194-3.795 6.937-7.157 10.67-10.48m-37.81 1.177c9.249 1.456-7.1 10.233-1.521 2.046l.786-1.083zm80.007 4.16c-2.96 4.12-5.948 9.061-6.611 1.56-4.468-4.308 6.152 1.827 6.61-1.56m9.088 3.133c3.568 2.66 1.25 14.19-4.81 11.823l-4.655 2.846c3.6-4.12 6.611-9.768 9.465-14.669m15.953 12.005c2.087 5.043-6.069 11.277-3.095 2.959l.115-1.628zm-104.965 7.842c2.21 4.399-.426 5.69-.792.81zm-31.121.48c6.197.166 1.087 11.107-1.31 2.721.196-.926.5-2.055 1.31-2.722m64.725 2.826c1.713-.49-1.566 3.602 0 0m19.112 6.788c3.122 7.265-9.627 2.46-8.842 10.007-5.348-3.137 5.975-9.756 8.842-10.007m-52 6.18c5.755 4.776.664 3.572 0 0m-8.413 7.813c2.234 3.577 10.735 5.933 5.757 9.304-1.07-1.759-9.384-7.381-5.757-9.304m114.161 3.357c8.974-2.108 12.87 11.213 2.375 9.885-5.248.92-5.03-8.122-2.375-9.885m-124.687 3.78c.836 7.766 11.151 10.447 14.513 14.347 2.633 11.24-17.812 4.545-15.058-4.15-.028-3.405.178-6.81.545-10.197m43.334 1.156c4.877 4.49-11.317 16.523-5.986 7.036q2.994-3.517 5.986-7.036m107.1 1.056c.155 4.766-8.049 3.93-2.59.894l1.102-.292h.005zm-38.065 5.336c2.597 2.926-1.699 2.108-.247.406zm-58.774.382c6.038 6.274-4.205 3.654 0 0m30.412.51c3.283 2.052 11.419 1.908 3.722 4.314-3.625 1.469-12.423 3.731-5.463-1.404a35.341 33 0 0 0 1.74-2.91" style="color:#000;fill:#f77500;stroke:none;stroke-width:1.03486;stroke-linecap:round;stroke-linejoin:round;-inkscape-stroke:none"/><path d="M492.944 814.747c-14.563-.203-12.543 20.963-.171 20.087 7.603 9.84 4.031 23.071-2.455 32.515-6.337 12.821 15.268 10.697 15.026 21.535 4.461 11.297-15.609 10.86-8.99 22.45 5.174 4.851 17.418 4.67 15.368 14.78-.81 7.517-1.267 17.105-8.83 21.51-8.214 7.17-21.056-8.64-26.28 5.72-1.332 9.942-12.08 10.628-20.1 8.532-4.29-.985-9.538-.759-13.102-3.36-3.709-13.412-19.412-7.078-22.133 3.207-4.8 2.693-11.656 4.304-17.271 2.715-9.1-5.395-10.929-27.436-25.311-14.824.194 11.913-9.057 16.877-19.68 19.965-5.771-.067-10.94 1.186-14.49-1.638-7.322-3.783-2.31-15.214-11.873-17.042-5.301-.674-13.398.958-16.354-5.454-4.267-6.45-1.66-14.597-.104-21.452 3.354-6.863 10.442-17.037-.928-21.147-5.773-1.174-6.924-6.63-5.11-11.235 1.696-6.046 6.585-10.592 11.677-14.311 11.066-.443 8.278-17.43-2.356-14.903-4.024 1.71-5.909-3.077-6.268-6.197-.504-5.716 3.017-11.611 8.164-14.448 10.167 2.736 20.014-11.09 7.346-14.692-4.65-8.006-16.84-5.412-23.514-1.272-14.757 7.188-18.41 24.454-16.466 38.619 1.243 6.2 7.714 10.581.837 15.874-2.674 5.583-3.377 11.144-3.358 16.4-3.391 10.012 7.27 18.769 3.195 27.071-4.554 12.721-.99 27.221 9.062 36.825 6.056 6.76 15.29 10.05 24.304 11.769 2.098 7.732 8.452 14.498 16.691 16.89 2.637.911 13.955 2.383 19.596.666 9.592.726 19.395-6.77 26.223-7.984 12 10.49 30.606 10.643 44.604 3.742 4.02-2.435 1.768-.413 6.47-3.571 10.53 6.006 23.861 6.646 35.533 2.209 4.188-1.634 9.977-4.383 12.494-6.635 5.632-2.662 6.234-12.308 13.72-10.103 11.863-1.206 23.277-8.709 27.968-19.033 2.786-9.372 6.187-18.957 3.915-28.834.333-8.463-11.181-13.363-6.258-21.065 4.022-9.256 4.676-21.532-4.466-28.46-7.855-2.581 1.008-8.611-.112-13.93.225-1.626-.033-6.406-.243-7.405-1.846-10.793-6.37-21.372-13.414-30.05-3.396-3.309-7.872-4.074-12.556-4.036m-153.471 174.49c1.196.37.043.01 0 0m-27.576-102.706c-.13.144-.718.497 0 0m131.759 73.317c.033.031.02.32 0 0m-18.623.325c.217 3.63-.202 1.046 0 0m31.867 1.726c.505.111-.492-.015 0 0m1.14.36c.048.002.615.213 0 0m26.628 14.984c-.052.075-.229.285 0 0" style="color:#000;fill:#000;stroke:none;stroke-width:1.03486;stroke-linecap:round;stroke-linejoin:round;-inkscape-stroke:none"/><path fill="#515051" d="M490.398 710.868c-3.38-2.798-7.325-4.852-10.571-7.798-4.706-4.236-11.378-3.45-17.342-3.669-4.701-1.86-9.471-3.722-13.95-6.074-7.1-3.332-15.258-2.773-22.88-4.208-13.012-.448-26.05.176-38.835 2.595-5.446.743-10.635-.933-15.957-1.383-5.79-.331-11.255 1.708-16.686 3.179-7.38-.362-14.6 1.3-21.792 2.515-6.116 1.336-11.047 6.485-17.648 4.769-4.47-2.866-4.234-11.252-3.894-16.23-1.784.721-4.859 4.625-4.091-1.01-.891-8.382 1.444-16.552 4.497-24.345.564-8.648 9.403-13.537 15.357-19.121 5.565-5.901 13.738-8.555 20.39-13.143 9.97-4.98 20.202-9.42 30.329-14.11 12.36-5.153 26.21-8.398 39.754-6.939 7.295.532 12.952 5.556 19.682 7.02 7.996-1.174 14.252 4.932 22.09 5.243 6.361 3.02 11.284 8.46 16.642 12.616 2.258 6.308 9.75 9.574 11.655 15.985 3.255 7.206 5.346 14.737 5.623 22.58 1.732 8.456 4.705 16.772 4.027 25.513 1.03 5.686 3.263 15.902-5.856 16.326" style="stroke:none;stroke-width:1.03486"/><path d="M399.137 627.793c-2.355-.076-3.817 2.3-3.77 4.273.007 1.007.515 4.362-1.378 3.149-1.725-1.431-2.737-3.446-4.408-4.907-2.1-1.395-5.435-.654-6.715 1.399-.68 1.624-.304 3.422-.608 5.117-.454 4.937-1.215 9.905-.632 14.863-.42 2.582 3.953 3.962 5.422 1.816 1.034-2.526-.036-5.233.359-7.836.138-2.612.476-5.21.733-7.813 2.127 2.134 4.114 4.4 6.455 6.338.914 2.882-1.083 6.122.797 8.809 1.489 2.118 5.834 1.247 5.901-1.403.539-2.018 1.956.92 2.76 1.471 1.232 1.314 2.877 2.438 4.808 2.509 1.976.435 4.51.539 5.89-1.117 1.529-2.586.375-5.58.557-8.353.042-4.814.612-9.638.207-14.447-.288-3.073-5.35-3.975-7.042-1.424-1.298 2.068-.418 4.524-.688 6.772-.08 3.595-.293 7.186-.297 10.782-1.475-2.438-4.76-3.667-5.49-6.54.125-3.508.03-7.033.506-10.522-.128-1.564-1.631-3.03-3.367-2.936m5.788 25.734c.368.451.352.663 0 0" style="color:#000;fill:#f6f7ef;stroke:none;stroke-width:1.03486;stroke-linecap:round;stroke-linejoin:round;-inkscape-stroke:none"/><path d="M400.129 600.129c-14.926.091-29.097 3.714-41.51 11.528-14.8 7.627-29.355 15.413-43.577 23.897-12.873 8.156-15.162 23.555-16.997 36.833.753 8.03-5.391 19.721 2.599 25.202 9.603 1.105 4.793-11.356 13.448-11.003 2.607-9.053 4.416-19.57 7.344-29.098 1.048-6.978 6.26-12.266 12.242-16.095 10.796-7.707 23.665-12.275 35.859-17.649 10.545-3.74 22.16-2.506 33.233-2.742 11.572.857 23.502-1.106 34.607 2.983 13.869 3.579 26.741 9.756 38.678 17.192 7.093 4.142 15.232 10.51 13.804 19.253.1 8.492.814 16.992.958 25.511 2.434 9.238-1.377 19.34 3.253 28.073 4.121 3.829 10.82-3.494 14.585-4.292 3.321-7.192.322-15.163-.473-22.616-1.663-8.723.72-17.682-.503-26.507-1.056-8.75-1.89-18.61-8.53-25.425-3.652-2.376-12.704-7.733-19.498-10.876-13.114-7.204-24.68-11.168-38.715-16.525-8.804-3.11-20.15-7.398-29.571-7.327-3.738-.264-7.489-.278-11.235-.317m.394 7.714c7.209-.411 16.993 6.696 7.105 6.648-9.889-.048-18.878 1.002-18.434-1.755.264-1.75 4.12-4.481 11.329-4.893m-90.489 32.028-.627.454z" style="color:#000;fill:#000;stroke:none;stroke-width:1.03486;stroke-linecap:round;stroke-linejoin:round;-inkscape-stroke:none"/><path fill="#4ab24a" d="M499.376 752.051c6.89 3.59 13.531 13.85 22.018 6.419 8.017-8.025 19.456-15.22 20.307-27.248-1.05-9.708-.658-19.888-5.713-28.73-3.32-9.385-7.188-20.664-18.619-23.752-9.494-2.966-19.092-5.589-27.784-10.428-7.224-5.643-16.295-6.644-24.995-4.782-9.442-2.696-19.475-3.006-29.24-4.246-12.253 1.123-23.67-4.4-35.892-4.218-11.674-1.983-23.667-.221-34.59 3.855-10.5 2.694-22.051-.688-31.875 4.759-7.78 3.418-17.231 3.359-23.477 9.63-12.15 9.013-25.602 16.897-34.982 28.685-9.322 8.537-2.011 19.123 1.995 27.953 2.934 11.98 12.371 20.86 19.768 30.525 3.563 2.912 1.758-6.682 6.711-8.18 6.586-8.429 11.115-18.665 21.3-24.23 8.305-7.153 18.649-12.132 29.232-15.498 10.145-2.64 20.1-5.777 30.633-6.993 7.51 1.14 14.953-1.347 22.564-.687 5.869-.692 11.55 1.509 16.627 3.905 4.323.155 8.404 1.63 12.762 1.356 4.675.401 8.035 3.562 11.663 5.949 6.904 1.992 13.972 3.532 20.33 6.796 4.4 2.283 7.111 6.307 11.112 8.999 7.25 4.227 17.184 9.41 18.75 17.749.558.757.989 1.58 1.395 2.412" style="stroke:none;stroke-width:1.03486"/><path d="M367.363 645.522c-34.069 2.244-70.402 9.883-95.285 33.264-19.583 19.972-20.749 54.942.904 74.014 5.227 9.27 25.248 19.856 24.562 1.828-3.118-9.103-14.375-13.117-18.282-22.68-9.26-12.136-6.119-29.633 5.525-39.415 15.728-15.073 37.692-22.605 59.385-26.597 16.113-1.791 32.3-3.84 48.56-2.492 31.799 1.361 64.068 1.962 95.005 9.595 18.885 5.915 38.703 19.382 40.862 39.237.487 12.775-7.998 23.918-14.954 34.227-6.831 4.206-7.665 11.177-8.7 16.879-4.22 4.523 5.858 4.561 1.414 10.568 9.903 12.898 20.717-6.387 25.523-14.085 14.23-18.809 24.906-42.384 19.986-65.742-2.278-11.693-12.6-19.569-23.426-24.571-12.241-6.932-25.084-13.303-39.508-14.998-17.038-2.397-34.252-3.346-51.332-5.468-19.162-1.905-38.562-.706-57.604-3.169-4.21-.172-8.433-.054-12.635-.395m144.966 102.281.171-.136zm-223.6 17.706c1.154.326.759.214 0 0m9.516-6.438-.735 1.136zm206.203 4.97-.146.214zm23.502.89c-.425 1.018-.215.516 0 0" style="color:#000;fill:#000;stroke:none;stroke-width:1.03486;stroke-linecap:round;stroke-linejoin:round;-inkscape-stroke:none"/><path d="M400.442 700.561c-25.035-.654-51.328 2.172-72.637 15.457-11.11 6.51-19.55 16.055-27.213 25.78-11.286 11.042-16.136 27.025-12.857 41.984 2.89 17.14 11.487 33.453 23.864 46.318 6.208 5.062 25.092 8.751 19.178-4.164-6.295-9.199-12.061-18.697-16.027-29.033-5.138-12.91-5.82-27.013-3.354-40.477.694-12.557 12.126-20.967 21.503-28.59 16.829-11.984 38.58-15.483 59.276-15.22 21.523-1.031 43.184 3.064 62.482 12.042 13.958 6.121 28.053 14.36 36.072 27.019 7.58 15.385 3.586 32.96-.272 48.764-1.796 7.841-5.848 15.1-8.128 22.707 2.05 9.55 11.663 2.08 17.97 3.541 9.032-5.159 9.529-16.673 13.35-25.117 3.329-11.287 4.413-23.268 2.173-34.832-8.78-14.8-16.51-30.773-30.674-41.903-6.922-6.472-16.504-8.544-25.416-11.213-14.112-5.948-28.817-11.002-44.351-12.25-4.944-.658-9.946-.965-14.94-.813m-91.663 31.186.01-.013zm182.02-1.762.31.371zm-172.733 10.044c-.758.668-.583.514 0 0m-31.211 32.266.057.381zm.107.723.031.18z" style="color:#000;fill:#000;stroke:none;stroke-width:1.03486;stroke-linecap:round;stroke-linejoin:round;-inkscape-stroke:none"/><path d="M400.571 669.172c-18.82.235-37.838.52-56.124 5.194-18.031 4.44-36.34 10.445-50.783 21.802-3.29 2.881-8.303 7.26-9.531 12.854-.98 6.017-.58 12.786 2.759 18.133.166 1.146 7.705 13.288 4.38-.357-1.112-4.61-2.404-5.648-2.932-11.554s4.224-11.159 9.282-15.053c14.275-11.124 32.464-16.728 50.23-20.989 18.587-4.491 37.877-4.381 56.929-4.555 14.838.256 29.556 2.35 44.234 4.231 15.632 2.145 30.993 6.17 45.594 11.776 7.816 4.141 16.308 10.584 16.633 19.656.61 6.116.941 8.437-1.357 15.432-6.305 16.312 2.447 5.57 5.82-.844 2.508-7.322 2.126-15.541-.443-22.772-6.149-11.342-18.841-17.973-31.618-21.094-11.425-3.532-23.098-6.194-35.014-7.76-15.951-1.916-31.926-4.342-48.059-4.1m17.329.615c.383.084 1.334.618 0 0m98.81 51.574c.021.062-.396.865 0 0" style="color:#000;fill:#000;fill-opacity:.25;stroke:none;stroke-width:1.03486;stroke-linecap:round;stroke-linejoin:round;-inkscape-stroke:none"/><path d="M369.728 618.912c-7.342 2.43-14.811 4.899-20.335 10.264-6.05 2.751-12.252 5.204-17.835 8.733-4.107 4.883-10.683 7.263-13.444 12.95.293 6.282 9.933 3.842 14.554 5.451 5.346-.871 10.908-9.665 16.385-4.067 3.756 6.968 11.907-1.818 17.47-1.824 7.111-2.076 12.545 4.726 18.327 7.429 7.832 2.526 16.218-.146 24.279 1.174 7.548.926 15.15 1.727 22.762 1.14 7.499 1.339 14.399 5.128 22.254 4.89 6.667-.434 13.271.3 19.9-.022 6.175-2.585 11.073.9 15.889 4.224 5.361 5.52 14.776-2.269 6.613-6.354-6.489-3.203-11.971-7.44-18.06-11.067-6.098-2.075-12.506-3.253-18.534-5.516-15.004-4.09-30.847-5.4-46.413-4.406-8.503.679-17.304 2.52-25.498-.795-6.691-1.57-14.185-5.668-14.377-12.898-.632-3.266 1.18-8.672-3.937-9.306m-13.149 6.508.504.053z" style="color:#000;fill:#000;fill-opacity:.2;stroke:none;stroke-width:1.03486;stroke-linecap:round;stroke-linejoin:round;-inkscape-stroke:none"/><path d="M314.374 751.991c10.33-10.78 25.078-16.84 39.502-21.332 16.73-4.087 34.066-5.852 51.315-6.457 8.684.445 17.51.674 25.628 4.025 12.336 3.777 23.785 9.91 34.549 16.595 5.491 5.566 13.584 10.611 15.168 18.338 1.555 11.438-4.08 22.763-.976 34.143-.504 6.859 7.269 19.894 12.595 8.677 5.372-12.22 14.3-23.216 16.614-36.506.185-9.792-9.43-16.078-14.95-23.396-5.715-6.84-11.138-14.286-19.78-18.16-13.276-7.738-28.966-10.201-42.87-16.666-8.167-3.673-17.117-5.193-26.078-5.546-13.918-2.111-28.82-4.73-42.163 1.157-16.817 5.52-31.56 15.204-45.646 25.167-5.427 5.013-8.918 11.475-13.89 16.837" opacity=".098" style="stroke:none;stroke-width:1.03486"/><path d="M482.675 671.425c3.636 1.392 6.824 3.659 10.451 5.107 6.085 3.282 10.736 8.733 13.427 14.746 2.14 5.871 1.495 12.262-.543 18.071-1.347 3.893-2.333 8.002-4.57 11.547a21.376 19.96 0 0 1-8.546 7.144c-3.664 2.564-8.689 3.181-11.697 6.563-1.978 3.243.934 6.79 2.828 9.442 3.112 3.523 5.822 7.738 10.228 9.963 6.126.966 12.858.858 18.25-2.383 5.227-2.747 9.381-7.064 12.728-11.656 3.97-5.656 4.622-12.564 6.09-19.022.796-5.758 1.305-11.756-.263-17.434-2.095-5.281-5.719-9.891-9.097-14.508-3.028-3.683-7.644-5.78-11.954-7.871" opacity=".098" style="stroke:none;stroke-width:1.03486"/><g style="stroke:none"><path d="M379.74 739.328c-1.529-.071-3.198.864-3.651 2.432-.684 2.023-.71 4.194-.94 6.297-.454 8.815-.459 17.672.311 26.468.476 2.954 3.978 4.525 6.662 3.555 1.96-.576 2.778-2.776 3.034-4.62.29-2.241.102-4.511.254-6.76-.205-6.709-.022-13.423-.249-20.131-.408-5.66-1.15-7.004-5.421-7.241m18.006.308c-1.785-.17-2.887 1.593-3.086 3.155-.493 3.326-.235 6.706-.34 10.056-.035 8.225.014 16.488 1.098 24.653.565 2.762 3.931 4.454 6.455 3.128 2.163-1.07 2.755-3.726 2.714-5.942-.038-2.056-.185-4.113-.081-6.165-.359-7.763-1.327-15.485-1.772-23.24-.184-2.005-.515-4.97-2.775-5.483-1.16-.255-2.213-.162-2.213-.162m25.749 82.269c-1.605-1.502-4.113-.489-5.411.925-1.765 2.181-3.323 4.556-5.493 6.377-3.633 3.238-8.17 5.237-12.806 6.572-1.884.68-3.798 1.258-5.792 1.517-1.792.354-3.874.846-4.938 2.458-.605 1.777 1.194 3.18 2.648 3.782 2.303.938 4.818 1.175 7.252 1.575 3.724.462 7.51-.214 10.934-1.713 6.26-2.532 11.868-7.145 14.767-13.33 1.127-1.96 1.916-4.227.557-6.308-.873-1.012-.647-.862-1.718-1.855" style="fill:#000;stroke:none" transform="matrix(1.07095 0 0 1 -20.698 .658)"/></g><path d="M352.583 624.334c-2.868.139-4.508 2.647-5.648 4.812-1.036 1.876-2.436 4.172-4.983 4.228-5.831.945-10.59 4.558-14.917 8.095-3.966 3.793-5.9 9.995-3.209 14.9 1.237 2.251 3.933 4.388 6.805 3.57 2.823-1 4.075-4.049 4.076-6.692 3.49-2.651 8.237-2.333 12.455-2.23 2.016.338 3.76-.48 5.658-.613 2.588.322 4.7 2.25 7.366 2.162 1.836-.359 2.845-2.635 2.14-4.184-1.4-3.757-5.756-6.126-6.124-10.288.136-1.631-.16-3.235-.032-4.874.065-2.517.722-5.32-.843-7.567-.642-.81-1.699-1.214-2.744-1.319m-4.124 3.044c1.146 1.136-1.4.637 0 0m7.148 2.735c-.332.416-.342.429 0 0" style="color:#000;fill:#000;fill-opacity:.2;stroke:none;stroke-width:1.03486;stroke-linecap:round;stroke-linejoin:round;-inkscape-stroke:none"/></svg>